Coordinates
version=1
nRows=80
nColumns=19
inDegrees=yes

Units are S.I. units (second, meters, Newtons, ...)
Angles are in degrees.

endheader
time	ground_force_vx	ground_force_vy	ground_force_vz	ground_force_px	ground_force_py	ground_force_pz	1_ground_force_vx	1_ground_force_vy	1_ground_force_vz	1_ground_force_px	1_ground_force_py	1_ground_force_pz	ground_torque_x	ground_torque_y	ground_torque_z	1_ground_torque_x	1_ground_torque_y	1_ground_torque_z
0.4575	9.939	-0.254	2.334	-0.188	0.000	0.406	-19.895	11.985	-1.797	-0.200	0.000	0.207	0.00000	40.08668	0.00000	0.00000	15.87273	0.00000
0.4600	10.025	-0.781	2.289	-0.184	0.000	0.394	-19.418	10.273	-1.231	-0.197	0.000	0.207	0.00000	15.35928	0.00000	0.00000	17.50474	0.00000
0.4625	10.247	-0.612	2.815	-0.177	0.000	0.363	-19.636	12.162	-1.227	-0.202	0.000	0.205	0.00000	24.34560	0.00000	0.00000	15.94975	0.00000
0.4650	9.936	-0.954	2.422	-0.179	0.000	0.389	-19.374	12.334	-1.226	-0.200	0.000	0.205	0.00000	13.43063	0.00000	0.00000	15.66321	0.00000
0.4675	9.980	-0.431	2.599	-0.162	0.000	0.389	-19.282	11.990	-1.707	-0.201	0.000	0.205	0.00000	28.91426	0.00000	0.00000	15.58555	0.00000
0.4700	10.200	-1.648	2.424	-0.180	0.000	0.414	-19.371	11.129	-1.667	-0.200	0.000	0.205	0.00000	7.40639	0.00000	0.00000	16.19092	0.00000
0.4725	9.937	-0.083	2.112	-0.185	0.000	0.398	-19.674	12.505	-2.014	-0.199	0.000	0.205	0.00000	124.15209	0.00000	0.00000	15.22851	0.00000
0.4750	9.851	0.445	2.688	-0.161	0.000	0.413	-18.975	12.498	-2.185	-0.202	0.000	0.205	0.00000	-21.19987	0.00000	0.00000	14.64663	0.00000
0.4775	9.937	-0.086	2.155	-0.174	0.000	0.395	-19.364	11.810	-2.668	-0.199	0.000	0.208	0.00000	124.25067	0.00000	0.00000	15.27061	0.00000
0.4800	10.244	-0.787	2.464	-0.157	0.000	0.397	-18.757	11.471	-2.011	-0.200	0.000	0.206	0.00000	15.98523	0.00000	0.00000	15.51425	0.00000
0.4825	10.373	0.083	2.418	-0.145	0.000	0.366	-18.628	11.470	-1.834	-0.200	0.000	0.208	0.00000	-162.19511	0.00000	0.00000	15.76657	0.00000
0.4850	10.596	-0.781	2.641	-0.169	0.000	0.399	-18.584	11.128	-1.791	-0.200	0.000	0.208	0.00000	16.48426	0.00000	0.00000	16.05706	0.00000
0.4875	10.460	-0.095	2.416	-0.144	0.000	0.350	-18.627	11.467	-1.965	-0.202	0.000	0.208	0.00000	157.67321	0.00000	0.00000	15.53306	0.00000
0.4900	10.550	-1.308	2.287	-0.176	0.000	0.388	-18.587	10.781	-1.617	-0.198	0.000	0.209	0.00000	10.70966	0.00000	0.00000	16.38851	0.00000
0.4925	10.465	0.781	2.771	-0.130	0.000	0.376	-18.671	12.149	-2.272	-0.200	0.000	0.207	0.00000	-15.52238	0.00000	0.00000	14.65640	0.00000
0.4950	10.643	0.265	3.037	-0.160	0.000	0.387	-18.672	11.977	-2.229	-0.201	0.000	0.206	0.00000	-46.60742	0.00000	0.00000	14.73147	0.00000
0.4975	10.375	0.443	2.819	-0.151	0.000	0.378	-18.588	11.978	-1.746	-0.201	0.000	0.208	0.00000	-27.68940	0.00000	0.00000	15.20752	0.00000
0.5000	10.819	0.613	2.992	-0.157	0.000	0.383	-18.326	12.320	-1.743	-0.202	0.000	0.208	0.00000	-19.72446	0.00000	0.00000	14.83098	0.00000
0.5025	10.992	0.438	2.728	-0.147	0.000	0.403	-18.284	12.836	-1.656	-0.202	0.000	0.206	0.00000	-25.45247	0.00000	0.00000	14.28908	0.00000
0.5050	11.300	-0.092	3.254	-0.144	0.000	0.356	-18.198	11.465	-1.353	-0.201	0.000	0.206	0.00000	181.16515	0.00000	0.00000	15.37160	0.00000
0.5075	11.171	-0.613	2.858	-0.163	0.000	0.394	-18.153	11.120	-1.438	-0.202	0.000	0.209	0.00000	22.53492	0.00000	0.00000	15.92865	0.00000
0.5100	10.947	-0.265	2.859	-0.146	0.000	0.371	-18.152	10.604	-1.614	-0.200	0.000	0.210	0.00000	56.66923	0.00000	0.00000	16.31404	0.00000
0.5125	10.812	0.609	2.640	-0.122	0.000	0.387	-18.326	11.116	-1.922	-0.199	0.000	0.209	0.00000	-19.63387	0.00000	0.00000	15.51696	0.00000
0.5150	10.465	0.961	3.125	-0.130	0.000	0.366	-18.323	11.457	-2.402	-0.200	0.000	0.208	0.00000	-13.12414	0.00000	0.00000	14.85456	0.00000
0.5175	10.817	0.092	2.906	-0.147	0.000	0.414	-18.235	11.630	-2.354	-0.200	0.000	0.211	0.00000	-121.17323	0.00000	0.00000	15.07404	0.00000
0.5200	11.167	0.430	2.902	-0.126	0.000	0.379	-17.884	11.973	-2.485	-0.202	0.000	0.208	0.00000	-31.48123	0.00000	0.00000	14.26409	0.00000
0.5225	10.595	1.129	3.035	-0.110	0.000	0.356	-18.406	11.800	-2.707	-0.202	0.000	0.207	0.00000	-11.67399	0.00000	0.00000	14.46085	0.00000
0.5250	10.725	0.435	2.861	-0.120	0.000	0.382	-17.883	11.629	-2.661	-0.201	0.000	0.208	0.00000	-29.73800	0.00000	0.00000	14.36377	0.00000
0.5275	11.253	-0.092	2.859	-0.126	0.000	0.390	-17.710	10.944	-2.310	-0.202	0.000	0.210	0.00000	150.65291	0.00000	0.00000	15.26899	0.00000
0.5300	10.991	0.958	2.904	-0.113	0.000	0.396	-17.709	11.627	-2.703	-0.200	0.000	0.209	0.00000	-11.74577	0.00000	0.00000	14.27899	0.00000
0.5325	11.125	0.780	3.035	-0.119	0.000	0.394	-17.842	11.112	-2.443	-0.201	0.000	0.209	0.00000	-15.39182	0.00000	0.00000	14.88906	0.00000
0.5350	11.569	-0.966	3.165	-0.164	0.000	0.390	-17.623	11.115	-2.223	-0.202	0.000	0.209	0.00000	16.12690	0.00000	0.00000	15.00228	0.00000
0.5375	11.473	-0.097	2.944	-0.124	0.000	0.367	-17.449	9.912	-2.267	-0.200	0.000	0.212	0.00000	163.89227	0.00000	0.00000	16.11806	0.00000
0.5400	11.079	1.129	3.079	-0.099	0.000	0.377	-17.666	11.626	-2.615	-0.202	0.000	0.210	0.00000	-11.09977	0.00000	0.00000	14.41273	0.00000
0.5425	11.522	-0.616	3.033	-0.159	0.000	0.377	-17.672	11.459	-1.742	-0.203	0.000	0.208	0.00000	25.88284	0.00000	0.00000	14.95856	0.00000
0.5450	11.474	-0.269	3.166	-0.127	0.000	0.373	-17.366	9.913	-1.830	-0.200	0.000	0.211	0.00000	60.33736	0.00000	0.00000	16.20711	0.00000
0.5475	11.342	0.779	3.034	-0.108	0.000	0.386	-17.539	12.312	-2.220	-0.203	0.000	0.208	0.00000	-16.43385	0.00000	0.00000	13.93546	0.00000
0.5500	11.343	1.130	3.034	-0.116	0.000	0.381	-17.670	12.486	-2.045	-0.204	0.000	0.208	0.00000	-10.70832	0.00000	0.00000	14.12853	0.00000
0.5525	11.034	1.129	3.079	-0.096	0.000	0.373	-17.580	11.454	-2.484	-0.201	0.000	0.210	0.00000	-11.30167	0.00000	0.00000	14.50673	0.00000
0.5550	11.430	0.252	3.164	-0.121	0.000	0.346	-17.540	10.429	-1.831	-0.201	0.000	0.209	0.00000	-67.13645	0.00000	0.00000	15.72387	0.00000
0.5575	11.652	-0.094	3.165	-0.139	0.000	0.369	-17.279	10.429	-1.786	-0.200	0.000	0.209	0.00000	169.92509	0.00000	0.00000	15.60021	0.00000
0.5600	11.387	0.429	3.387	-0.107	0.000	0.368	-17.320	10.598	-2.135	-0.201	0.000	0.209	0.00000	-35.97915	0.00000	0.00000	15.18409	0.00000
0.5625	11.519	-0.094	3.255	-0.119	0.000	0.386	-17.409	10.256	-1.830	-0.201	0.000	0.210	0.00000	160.32658	0.00000	0.00000	15.89027	0.00000
0.5650	11.739	-0.788	3.123	-0.150	0.000	0.387	-17.493	10.255	-2.309	-0.200	0.000	0.213	0.00000	20.40787	0.00000	0.00000	15.92219	0.00000
0.5675	11.344	1.130	3.388	-0.097	0.000	0.380	-17.579	10.938	-2.572	-0.201	0.000	0.211	0.00000	-11.47095	0.00000	0.00000	14.88722	0.00000
0.5700	11.299	0.263	3.258	-0.124	0.000	0.396	-17.534	11.967	-2.700	-0.203	0.000	0.210	0.00000	-50.45102	0.00000	0.00000	14.09670	0.00000
0.5725	11.342	1.129	3.299	-0.094	0.000	0.367	-17.494	10.593	-2.397	-0.201	0.000	0.211	0.00000	-12.10751	0.00000	0.00000	15.24926	0.00000
0.5750	11.478	0.957	3.432	-0.116	0.000	0.393	-17.540	10.937	-2.046	-0.202	0.000	0.212	0.00000	-12.92873	0.00000	0.00000	15.39521	0.00000
0.5775	11.341	0.087	3.478	-0.116	0.000	0.374	-17.106	10.083	-1.609	-0.202	0.000	0.211	0.00000	-180.71539	0.00000	0.00000	16.06323	0.00000
0.5800	11.784	0.083	3.564	-0.116	0.000	0.381	-17.367	10.598	-1.651	-0.203	0.000	0.213	0.00000	-190.45242	0.00000	0.00000	15.96898	0.00000
0.5825	11.872	-0.264	3.564	-0.124	0.000	0.389	-17.235	10.599	-1.739	-0.202	0.000	0.211	0.00000	60.56675	0.00000	0.00000	15.66105	0.00000
0.5850	11.607	-0.779	3.657	-0.138	0.000	0.393	-17.456	9.909	-1.524	-0.203	0.000	0.212	0.00000	21.17714	0.00000	0.00000	16.56056	0.00000
0.5875	11.519	0.087	3.742	-0.115	0.000	0.369	-17.456	9.739	-1.524	-0.201	0.000	0.213	0.00000	-191.72878	0.00000	0.00000	16.86873	0.00000
0.5900	11.432	1.310	3.742	-0.094	0.000	0.365	-17.629	11.107	-1.914	-0.204	0.000	0.213	0.00000	-10.49260	0.00000	0.00000	15.43126	0.00000
0.5925	11.611	0.264	3.742	-0.133	0.000	0.385	-17.978	10.421	-1.873	-0.202	0.000	0.215	0.00000	-55.63449	0.00000	0.00000	16.48133	0.00000
0.5950	11.257	1.312	3.920	-0.093	0.000	0.371	-17.801	10.937	-2.132	-0.203	0.000	0.214	0.00000	-10.32372	0.00000	0.00000	15.71993	0.00000
0.5975	11.216	0.619	3.921	-0.136	0.000	0.378	-17.628	10.939	-1.826	-0.204	0.000	0.213	0.00000	-22.64811	0.00000	0.00000	15.73849	0.00000
0.6000	11.304	-0.249	3.879	-0.148	0.000	0.407	-17.452	10.249	-2.132	-0.203	0.000	0.215	0.00000	55.56513	0.00000	0.00000	16.18815	0.00000
0.6025	11.391	-0.426	3.878	-0.142	0.000	0.404	-17.279	8.535	-1.652	-0.201	0.000	0.219	0.00000	34.62075	0.00000	0.00000	18.82731	0.00000
0.6050	11.347	-0.429	3.921	-0.148	0.000	0.382	-17.495	9.050	-1.914	-0.202	0.000	0.218	0.00000	38.13867	0.00000	0.00000	18.01943	0.00000
0.6075	11.389	-0.430	3.612	-0.147	0.000	0.383	-17.324	9.225	-1.388	-0.203	0.000	0.218	0.00000	37.04244	0.00000	0.00000	18.13095	0.00000
0.6100	11.082	0.100	3.924	-0.131	0.000	0.401	-17.757	9.565	-1.957	-0.203	0.000	0.219	0.00000	-138.73763	0.00000	0.00000	17.71650	0.00000
0.6125	11.081	1.139	3.744	-0.111	0.000	0.367	-17.712	9.390	-2.132	-0.204	0.000	0.219	0.00000	-11.89337	0.00000	0.00000	17.75768	0.00000
0.6150	10.998	-0.590	4.014	-0.171	0.000	0.411	-17.759	8.188	-1.828	-0.202	0.000	0.222	0.00000	23.08844	0.00000	0.00000	19.94055	0.00000
0.6175	11.171	0.625	4.145	-0.121	0.000	0.402	-17.933	9.389	-1.915	-0.204	0.000	0.219	0.00000	-20.72106	0.00000	0.00000	18.02943	0.00000
0.6200	11.082	1.143	4.010	-0.118	0.000	0.361	-18.152	8.704	-1.741	-0.204	0.000	0.221	0.00000	-12.26624	0.00000	0.00000	19.46305	0.00000
0.6225	11.527	-0.939	4.410	-0.171	0.000	0.401	-17.804	8.021	-1.213	-0.206	0.000	0.224	0.00000	17.27907	0.00000	0.00000	21.20962	0.00000
0.6250	11.304	-0.419	4.365	-0.155	0.000	0.378	-17.983	6.989	-0.823	-0.205	0.000	0.227	0.00000	40.40814	0.00000	0.00000	24.16829	0.00000
0.6275	10.866	-0.062	4.590	-0.159	0.000	0.392	-18.417	7.672	-1.347	-0.205	0.000	0.227	0.00000	238.23497	0.00000	0.00000	22.66788	0.00000
0.6300	11.396	-1.108	4.721	-0.178	0.000	0.400	-18.202	6.646	-0.736	-0.205	0.000	0.228	0.00000	15.17422	0.00000	0.00000	25.61010	0.00000
0.6325	11.001	-1.450	4.813	-0.178	0.000	0.417	-18.287	6.647	-0.865	-0.206	0.000	0.230	0.00000	10.95430	0.00000	0.00000	26.07637	0.00000
0.6350	11.044	-0.758	4.633	-0.179	0.000	0.393	-18.152	6.991	-1.169	-0.207	0.000	0.229	0.00000	21.05260	0.00000	0.00000	24.62044	0.00000
0.6375	10.909	-1.279	4.371	-0.179	0.000	0.404	-18.109	5.959	-1.172	-0.206	0.000	0.231	0.00000	12.49909	0.00000	0.00000	27.69570	0.00000
0.6400	10.469	-0.582	4.371	-0.167	0.000	0.397	-18.063	5.786	-1.387	-0.208	0.000	0.234	0.00000	25.34309	0.00000	0.00000	28.67127	0.00000
0.6425	10.385	-1.102	4.371	-0.193	0.000	0.406	-18.149	5.101	-1.389	-0.207	0.000	0.236	0.00000	12.96438	0.00000	0.00000	31.91705	0.00000
0.6450	10.119	-0.926	4.108	-0.191	0.000	0.411	-18.359	5.610	-2.612	-0.207	0.000	0.236	0.00000	14.18167	0.00000	0.00000	28.62702	0.00000
0.6475	10.166	-0.755	4.238	-0.199	0.000	0.397	-18.445	5.437	-2.698	-0.208	0.000	0.238	0.00000	18.14018	0.00000	0.00000	29.73103	0.00000
0.6500	9.681	-1.101	4.020	-0.201	0.000	0.404	-18.095	4.068	-2.523	-0.207	0.000	0.241	0.00000	11.87957	0.00000	0.00000	37.57524	0.00000
0.6525	9.854	-1.281	3.621	-0.195	0.000	0.402	-18.006	3.379	-2.610	-0.209	0.000	0.244	0.00000	10.56345	0.00000	0.00000	44.13666	0.00000
0.6550	9.814	-2.323	3.754	-0.221	0.000	0.402	-17.958	4.067	-2.954	-0.211	0.000	0.246	0.00000	6.28656	0.00000	0.00000	38.12453	0.00000
